<svg xmlns="http://www.w3.org/2000/svg" xmlns:xlink="http://www.w3.org/1999/xlink" width="500" zoomAndPan="magnify" viewBox="0 0 375 374.999991" height="500" preserveAspectRatio="xMidYMid meet" version="1.0"><defs><g/><clipPath id="ab56e18667"><path d="M 275.175781 131.605469 L 299.925781 131.605469 L 299.925781 156.355469 L 275.175781 156.355469 Z M 275.175781 131.605469 " clip-rule="nonzero"/></clipPath><clipPath id="5326050541"><path d="M 287.40625 131.605469 L 312.15625 131.605469 L 312.15625 156.355469 L 287.40625 156.355469 Z M 287.40625 131.605469 " clip-rule="nonzero"/></clipPath><clipPath id="2ff6238bda"><path d="M 299.632812 131.605469 L 324.382812 131.605469 L 324.382812 156.355469 L 299.632812 156.355469 Z M 299.632812 131.605469 " clip-rule="nonzero"/></clipPath></defs><g fill="#231f20" fill-opacity="1"><g transform="translate(51.228591, 210.191896)"><g><path d="M 15.703125 0 L 2.109375 0 L 2.109375 -0.625 C 2.335938 -0.625 2.660156 -0.953125 3.078125 -1.609375 C 3.503906 -2.265625 3.71875 -3.738281 3.71875 -6.03125 L 3.71875 -43.171875 C 3.71875 -45.515625 3.503906 -47 3.078125 -47.625 C 2.660156 -48.257812 2.335938 -48.578125 2.109375 -48.578125 L 2.109375 -49.203125 L 2.734375 -49.203125 C 4.785156 -49.253906 6.957031 -49.394531 9.25 -49.625 C 11.539062 -49.863281 13.691406 -49.984375 15.703125 -49.984375 C 20.460938 -49.984375 24.234375 -49.476562 27.015625 -48.46875 C 29.796875 -47.46875 31.78125 -46.101562 32.96875 -44.375 C 34.164062 -42.644531 34.765625 -40.632812 34.765625 -38.34375 C 34.765625 -35.488281 33.769531 -33.046875 31.78125 -31.015625 C 29.800781 -28.984375 26.332031 -27.664062 21.375 -27.0625 C 24.695312 -26.6875 27.6875 -25.945312 30.34375 -24.84375 C 33.007812 -23.75 35.113281 -22.273438 36.65625 -20.421875 C 38.195312 -18.578125 38.96875 -16.300781 38.96875 -13.59375 C 38.96875 -10.882812 38.347656 -8.640625 37.109375 -6.859375 C 35.867188 -5.085938 34.175781 -3.695312 32.03125 -2.6875 C 29.882812 -1.6875 27.40625 -0.988281 24.59375 -0.59375 C 21.789062 -0.195312 18.828125 0 15.703125 0 Z M 34 -13.59375 C 34 -16.125 33.457031 -18.207031 32.375 -19.84375 C 31.300781 -21.476562 29.945312 -22.757812 28.3125 -23.6875 C 26.675781 -24.625 24.992188 -25.300781 23.265625 -25.71875 C 21.535156 -26.144531 20.003906 -26.425781 18.671875 -26.5625 C 17.347656 -26.707031 16.453125 -26.78125 15.984375 -26.78125 L 8.6875 -26.78125 L 8.6875 -0.625 L 15.703125 -0.625 C 15.703125 -0.625 16.144531 -0.632812 17.03125 -0.65625 C 17.914062 -0.6875 19.046875 -0.796875 20.421875 -0.984375 C 21.804688 -1.171875 23.28125 -1.507812 24.84375 -2 C 26.414062 -2.488281 27.890625 -3.210938 29.265625 -4.171875 C 30.640625 -5.128906 31.769531 -6.378906 32.65625 -7.921875 C 33.550781 -9.460938 34 -11.351562 34 -13.59375 Z M 8.6875 -27.40625 L 15.703125 -27.40625 L 15.703125 -27.34375 C 17.242188 -27.34375 18.832031 -27.515625 20.46875 -27.859375 C 22.101562 -28.210938 23.632812 -28.796875 25.0625 -29.609375 C 26.488281 -30.429688 27.644531 -31.550781 28.53125 -32.96875 C 29.414062 -34.394531 29.859375 -36.1875 29.859375 -38.34375 C 29.859375 -40.539062 29.414062 -42.347656 28.53125 -43.765625 C 27.644531 -45.191406 26.488281 -46.3125 25.0625 -47.125 C 23.632812 -47.945312 22.101562 -48.535156 20.46875 -48.890625 C 18.832031 -49.242188 17.242188 -49.421875 15.703125 -49.421875 C 14.628906 -49.421875 13.492188 -49.375 12.296875 -49.28125 C 11.109375 -49.1875 9.90625 -49.09375 8.6875 -49 Z M 8.6875 -27.40625 "/></g></g></g><g fill="#231f20" fill-opacity="1"><g transform="translate(92.304248, 210.191896)"><g><path d="M 3.015625 -18.21875 C 2.128906 -21.539062 1.914062 -24.820312 2.375 -28.0625 C 2.84375 -31.3125 3.882812 -34.328125 5.5 -37.109375 C 7.113281 -39.890625 9.203125 -42.296875 11.765625 -44.328125 C 14.335938 -46.367188 17.285156 -47.832031 20.609375 -48.71875 C 23.828125 -49.601562 27.003906 -49.832031 30.140625 -49.40625 C 33.273438 -48.988281 36.207031 -48.046875 38.9375 -46.578125 C 41.664062 -45.109375 44.035156 -43.179688 46.046875 -40.796875 L 44.375 -34.625 L 43.734375 -34.625 C 42.660156 -36.820312 41.328125 -38.863281 39.734375 -40.75 C 38.148438 -42.644531 36.375 -44.269531 34.40625 -45.625 C 32.445312 -46.976562 30.3125 -47.898438 28 -48.390625 C 25.6875 -48.890625 23.269531 -48.8125 20.75 -48.15625 C 17.757812 -47.363281 15.257812 -45.925781 13.25 -43.84375 C 11.238281 -41.757812 9.726562 -39.335938 8.71875 -36.578125 C 7.71875 -33.828125 7.171875 -30.976562 7.078125 -28.03125 L 8.484375 -28.03125 C 11.285156 -28.03125 14.078125 -28.160156 16.859375 -28.421875 C 19.640625 -28.679688 22.160156 -29 24.421875 -29.375 C 26.691406 -29.75 28.515625 -30.0625 29.890625 -30.3125 C 31.273438 -30.570312 31.96875 -30.703125 31.96875 -30.703125 L 32.59375 -30.703125 L 32.59375 -24.75 L 31.96875 -24.75 C 31.96875 -24.75 31.273438 -24.875 29.890625 -25.125 C 28.515625 -25.382812 26.691406 -25.703125 24.421875 -26.078125 C 22.160156 -26.453125 19.640625 -26.765625 16.859375 -27.015625 C 14.078125 -27.273438 11.285156 -27.40625 8.484375 -27.40625 L 7.015625 -27.40625 C 7.015625 -26.09375 7.09375 -24.769531 7.25 -23.4375 C 7.414062 -22.113281 7.660156 -20.820312 7.984375 -19.5625 C 9.066406 -15.632812 10.691406 -12.359375 12.859375 -9.734375 C 15.035156 -7.117188 17.535156 -5.132812 20.359375 -3.78125 C 23.191406 -2.425781 26.113281 -1.691406 29.125 -1.578125 C 32.132812 -1.460938 34.992188 -1.960938 37.703125 -3.078125 C 40.421875 -4.203125 42.75 -5.921875 44.6875 -8.234375 C 46.625 -10.546875 47.941406 -13.429688 48.640625 -16.890625 L 49.28125 -16.75 C 48.625 -13.476562 47.414062 -10.6875 45.65625 -8.375 C 43.90625 -6.0625 41.78125 -4.210938 39.28125 -2.828125 C 36.78125 -1.453125 34.09375 -0.539062 31.21875 -0.09375 C 28.351562 0.34375 25.457031 0.296875 22.53125 -0.234375 C 19.613281 -0.773438 16.84375 -1.789062 14.21875 -3.28125 C 11.601562 -4.78125 9.316406 -6.769531 7.359375 -9.25 C 5.398438 -11.726562 3.953125 -14.71875 3.015625 -18.21875 Z M 3.015625 -18.21875 "/></g></g></g><g fill="#231f20" fill-opacity="1"><g transform="translate(143.683862, 210.191896)"><g><path d="M 10.375 -49.140625 L 10.375 -48.5 C 10.1875 -48.5 9.867188 -48.179688 9.421875 -47.546875 C 8.984375 -46.921875 8.765625 -45.441406 8.765625 -43.109375 L 8.765625 -0.625 L 16.6875 -0.625 C 20.1875 -1 23.054688 -1.640625 25.296875 -2.546875 C 27.546875 -3.460938 29.742188 -4.578125 31.890625 -5.890625 L 32.53125 -5.890625 L 32.53125 0.0625 L 26.5 0.0625 L 24.671875 0 L 2.109375 0 L 2.109375 -0.625 C 2.335938 -0.625 2.660156 -0.953125 3.078125 -1.609375 C 3.503906 -2.265625 3.71875 -3.738281 3.71875 -6.03125 L 3.71875 -43.109375 C 3.71875 -45.441406 3.503906 -46.921875 3.078125 -47.546875 C 2.660156 -48.179688 2.335938 -48.5 2.109375 -48.5 L 2.109375 -49.140625 Z M 10.375 -49.140625 "/></g></g></g><g fill="#231f20" fill-opacity="1"><g transform="translate(178.310778, 210.191896)"><g><path d="M 10.375 -49.203125 L 10.375 -48.578125 C 10.132812 -48.578125 9.789062 -48.257812 9.34375 -47.625 C 8.90625 -47 8.6875 -45.515625 8.6875 -43.171875 L 8.6875 -6.03125 C 8.6875 -3.738281 8.90625 -2.265625 9.34375 -1.609375 C 9.789062 -0.953125 10.132812 -0.625 10.375 -0.625 L 10.375 0 L 2.109375 0 L 2.109375 -0.625 C 2.335938 -0.625 2.660156 -0.953125 3.078125 -1.609375 C 3.503906 -2.265625 3.71875 -3.738281 3.71875 -6.03125 L 3.71875 -43.171875 C 3.71875 -45.515625 3.503906 -47 3.078125 -47.625 C 2.660156 -48.257812 2.335938 -48.578125 2.109375 -48.578125 L 2.109375 -49.203125 Z M 10.375 -49.203125 "/></g></g></g><g fill="#231f20" fill-opacity="1"><g transform="translate(190.787681, 210.191896)"><g><path d="M 3.015625 -18.296875 C 2.128906 -21.609375 1.914062 -24.890625 2.375 -28.140625 C 2.84375 -31.390625 3.882812 -34.40625 5.5 -37.1875 C 7.113281 -39.96875 9.203125 -42.375 11.765625 -44.40625 C 14.335938 -46.4375 17.285156 -47.894531 20.609375 -48.78125 C 23.828125 -49.664062 26.988281 -49.898438 30.09375 -49.484375 C 33.207031 -49.066406 36.128906 -48.117188 38.859375 -46.640625 C 41.597656 -45.171875 43.972656 -43.242188 45.984375 -40.859375 L 44.375 -34.703125 L 43.734375 -34.703125 C 42.660156 -36.890625 41.328125 -38.929688 39.734375 -40.828125 C 38.148438 -42.722656 36.363281 -44.347656 34.375 -45.703125 C 32.394531 -47.054688 30.257812 -47.976562 27.96875 -48.46875 C 25.675781 -48.957031 23.269531 -48.875 20.75 -48.21875 C 17.757812 -47.425781 15.269531 -46.015625 13.28125 -43.984375 C 11.289062 -41.953125 9.78125 -39.566406 8.75 -36.828125 C 7.726562 -34.097656 7.160156 -31.238281 7.046875 -28.25 C 6.929688 -25.257812 7.242188 -22.382812 7.984375 -19.625 C 9.066406 -15.695312 10.691406 -12.425781 12.859375 -9.8125 C 15.035156 -7.195312 17.535156 -5.210938 20.359375 -3.859375 C 23.191406 -2.503906 26.113281 -1.765625 29.125 -1.640625 C 32.132812 -1.523438 34.992188 -2.03125 37.703125 -3.15625 C 40.421875 -4.28125 42.75 -6 44.6875 -8.3125 C 46.625 -10.625 47.941406 -13.507812 48.640625 -16.96875 L 49.203125 -16.828125 C 48.546875 -13.554688 47.34375 -10.765625 45.59375 -8.453125 C 43.84375 -6.140625 41.726562 -4.289062 39.25 -2.90625 C 36.769531 -1.53125 34.09375 -0.617188 31.21875 -0.171875 C 28.351562 0.265625 25.457031 0.21875 22.53125 -0.3125 C 19.613281 -0.851562 16.84375 -1.867188 14.21875 -3.359375 C 11.601562 -4.859375 9.316406 -6.84375 7.359375 -9.3125 C 5.398438 -11.789062 3.953125 -14.785156 3.015625 -18.296875 Z M 3.015625 -18.296875 "/></g></g></g><g fill="#231f20" fill-opacity="1"><g transform="translate(242.0972, 210.191896)"><g><path d="M 3.015625 -18.296875 C 2.128906 -21.609375 1.914062 -24.890625 2.375 -28.140625 C 2.84375 -31.390625 3.882812 -34.40625 5.5 -37.1875 C 7.113281 -39.96875 9.203125 -42.375 11.765625 -44.40625 C 14.335938 -46.4375 17.285156 -47.894531 20.609375 -48.78125 C 23.828125 -49.664062 26.988281 -49.898438 30.09375 -49.484375 C 33.207031 -49.066406 36.128906 -48.117188 38.859375 -46.640625 C 41.597656 -45.171875 43.972656 -43.242188 45.984375 -40.859375 L 44.375 -34.703125 L 43.734375 -34.703125 C 42.660156 -36.890625 41.328125 -38.929688 39.734375 -40.828125 C 38.148438 -42.722656 36.363281 -44.347656 34.375 -45.703125 C 32.394531 -47.054688 30.257812 -47.976562 27.96875 -48.46875 C 25.675781 -48.957031 23.269531 -48.875 20.75 -48.21875 C 17.757812 -47.425781 15.269531 -46.015625 13.28125 -43.984375 C 11.289062 -41.953125 9.78125 -39.566406 8.75 -36.828125 C 7.726562 -34.097656 7.160156 -31.238281 7.046875 -28.25 C 6.929688 -25.257812 7.242188 -22.382812 7.984375 -19.625 C 9.066406 -15.695312 10.691406 -12.425781 12.859375 -9.8125 C 15.035156 -7.195312 17.535156 -5.210938 20.359375 -3.859375 C 23.191406 -2.503906 26.113281 -1.765625 29.125 -1.640625 C 32.132812 -1.523438 34.992188 -2.03125 37.703125 -3.15625 C 40.421875 -4.28125 42.75 -6 44.6875 -8.3125 C 46.625 -10.625 47.941406 -13.507812 48.640625 -16.96875 L 49.203125 -16.828125 C 48.546875 -13.554688 47.34375 -10.765625 45.59375 -8.453125 C 43.84375 -6.140625 41.726562 -4.289062 39.25 -2.90625 C 36.769531 -1.53125 34.09375 -0.617188 31.21875 -0.171875 C 28.351562 0.265625 25.457031 0.21875 22.53125 -0.3125 C 19.613281 -0.851562 16.84375 -1.867188 14.21875 -3.359375 C 11.601562 -4.859375 9.316406 -6.84375 7.359375 -9.3125 C 5.398438 -11.789062 3.953125 -14.785156 3.015625 -18.296875 Z M 3.015625 -18.296875 "/></g></g></g><g fill="#231f20" fill-opacity="1"><g transform="translate(293.406718, 210.191896)"><g><path d="M 10.375 -49.203125 L 10.375 -48.578125 C 10.132812 -48.578125 9.789062 -48.257812 9.34375 -47.625 C 8.90625 -47 8.6875 -45.515625 8.6875 -43.171875 L 8.6875 -6.03125 C 8.6875 -3.738281 8.90625 -2.265625 9.34375 -1.609375 C 9.789062 -0.953125 10.132812 -0.625 10.375 -0.625 L 10.375 0 L 2.109375 0 L 2.109375 -0.625 C 2.335938 -0.625 2.660156 -0.953125 3.078125 -1.609375 C 3.503906 -2.265625 3.71875 -3.738281 3.71875 -6.03125 L 3.71875 -43.171875 C 3.71875 -45.515625 3.503906 -47 3.078125 -47.625 C 2.660156 -48.257812 2.335938 -48.578125 2.109375 -48.578125 L 2.109375 -49.203125 Z M 10.375 -49.203125 "/></g></g></g><g fill="#231f20" fill-opacity="1"><g transform="translate(305.883621, 210.191896)"><g><path d="M 32.796875 -7.5 L 32.25 -9.1875 C 31.539062 -11.238281 30.546875 -13.195312 29.265625 -15.0625 C 27.984375 -16.9375 26.429688 -18.503906 24.609375 -19.765625 C 22.785156 -21.023438 20.726562 -21.773438 18.4375 -22.015625 C 17.175781 -22.109375 15.820312 -21.941406 14.375 -21.515625 C 12.925781 -21.097656 11.941406 -20.210938 11.421875 -18.859375 L 7.984375 -8.625 C 6.117188 -3.289062 6.144531 -0.625 8.0625 -0.625 L 8.0625 0 L 2.109375 0 L 2.109375 -0.625 C 2.617188 -0.625 3.351562 -1.207031 4.3125 -2.375 C 5.269531 -3.550781 6.285156 -5.703125 7.359375 -8.828125 L 19.84375 -45.34375 L 18.5 -49.203125 L 23.828125 -49.203125 L 37.21875 -10.15625 C 38.15625 -7.539062 39.03125 -5.296875 39.84375 -3.421875 C 40.664062 -1.554688 41.332031 -0.625 41.84375 -0.625 L 41.84375 0 L 33.640625 0 L 33.640625 -0.625 C 33.878906 -0.625 33.960938 -1.28125 33.890625 -2.59375 C 33.816406 -3.90625 33.453125 -5.539062 32.796875 -7.5 Z M 20.1875 -44.375 L 12.203125 -20.953125 C 12.992188 -21.703125 13.972656 -22.179688 15.140625 -22.390625 C 16.304688 -22.597656 17.40625 -22.65625 18.4375 -22.5625 C 21.050781 -22.332031 23.382812 -21.445312 25.4375 -19.90625 C 27.5 -18.363281 29.179688 -16.519531 30.484375 -14.375 Z M 20.1875 -44.375 "/></g></g></g><g fill="#231f20" fill-opacity="1"><g transform="translate(147.782525, 227.862974)"><g><path d="M 0.234375 -5.546875 L 0.234375 -5.609375 L 0.984375 -5.609375 L 0.984375 -4.765625 C 1.078125 -5.035156 1.238281 -5.242188 1.46875 -5.390625 C 1.707031 -5.546875 1.984375 -5.640625 2.296875 -5.671875 C 2.609375 -5.710938 2.925781 -5.679688 3.25 -5.578125 C 3.570312 -5.484375 3.867188 -5.316406 4.140625 -5.078125 C 4.421875 -4.847656 4.648438 -4.539062 4.828125 -4.15625 C 5.003906 -3.78125 5.09375 -3.332031 5.09375 -2.8125 C 5.09375 -2.289062 5.003906 -1.84375 4.828125 -1.46875 C 4.660156 -1.101562 4.425781 -0.804688 4.125 -0.578125 C 3.832031 -0.347656 3.484375 -0.175781 3.078125 -0.0625 C 2.671875 0.0390625 2.234375 0.09375 1.765625 0.09375 C 1.535156 0.09375 1.289062 0.078125 1.03125 0.046875 C 0.78125 0.0234375 0.539062 0.0078125 0.3125 0 L 0.234375 0 L 0.234375 -0.078125 C 0.265625 -0.078125 0.300781 -0.113281 0.34375 -0.1875 C 0.394531 -0.257812 0.421875 -0.425781 0.421875 -0.6875 L 0.421875 -4.921875 C 0.421875 -5.191406 0.394531 -5.363281 0.34375 -5.4375 C 0.300781 -5.507812 0.265625 -5.546875 0.234375 -5.546875 Z M 4.53125 -2.8125 C 4.53125 -3.28125 4.460938 -3.6875 4.328125 -4.03125 C 4.203125 -4.375 4.035156 -4.65625 3.828125 -4.875 C 3.617188 -5.101562 3.390625 -5.269531 3.140625 -5.375 C 2.890625 -5.488281 2.640625 -5.546875 2.390625 -5.546875 C 2.140625 -5.554688 1.90625 -5.515625 1.6875 -5.421875 C 1.476562 -5.328125 1.304688 -5.1875 1.171875 -5 C 1.046875 -4.820312 0.984375 -4.59375 0.984375 -4.3125 L 0.984375 -0.03125 C 1.117188 -0.0195312 1.25 -0.0078125 1.375 0 C 1.507812 0.0078125 1.640625 0.015625 1.765625 0.015625 C 2.335938 0.015625 2.832031 -0.09375 3.25 -0.3125 C 3.664062 -0.539062 3.984375 -0.867188 4.203125 -1.296875 C 4.421875 -1.722656 4.53125 -2.226562 4.53125 -2.8125 Z M 4.53125 -2.8125 "/></g></g></g><g fill="#231f20" fill-opacity="1"><g transform="translate(158.118732, 227.862974)"><g><path d="M 2.53125 -3.09375 L 3.65625 -1.125 C 3.832031 -0.832031 3.984375 -0.582031 4.109375 -0.375 C 4.242188 -0.175781 4.34375 -0.078125 4.40625 -0.078125 L 4.40625 0 L 3.46875 0 L 3.46875 -0.078125 C 3.5 -0.078125 3.484375 -0.15625 3.421875 -0.3125 C 3.367188 -0.476562 3.265625 -0.691406 3.109375 -0.953125 L 1.890625 -3.0625 L 0.984375 -3.0625 L 0.984375 -0.6875 C 0.984375 -0.425781 1.007812 -0.257812 1.0625 -0.1875 C 1.113281 -0.113281 1.148438 -0.078125 1.171875 -0.078125 L 1.171875 0 L 0.234375 0 L 0.234375 -0.078125 C 0.265625 -0.078125 0.300781 -0.113281 0.34375 -0.1875 C 0.394531 -0.257812 0.421875 -0.425781 0.421875 -0.6875 L 0.421875 -4.921875 C 0.421875 -5.191406 0.394531 -5.363281 0.34375 -5.4375 C 0.300781 -5.507812 0.265625 -5.546875 0.234375 -5.546875 L 0.234375 -5.609375 L 0.3125 -5.609375 C 0.539062 -5.617188 0.785156 -5.632812 1.046875 -5.65625 C 1.316406 -5.6875 1.566406 -5.703125 1.796875 -5.703125 C 2.335938 -5.703125 2.765625 -5.644531 3.078125 -5.53125 C 3.398438 -5.414062 3.628906 -5.257812 3.765625 -5.0625 C 3.898438 -4.863281 3.96875 -4.632812 3.96875 -4.375 C 3.96875 -4.050781 3.859375 -3.773438 3.640625 -3.546875 C 3.421875 -3.316406 3.050781 -3.164062 2.53125 -3.09375 Z M 0.984375 -5.59375 L 0.984375 -3.125 L 1.796875 -3.125 C 1.972656 -3.125 2.148438 -3.140625 2.328125 -3.171875 C 2.515625 -3.210938 2.691406 -3.28125 2.859375 -3.375 C 3.023438 -3.46875 3.15625 -3.597656 3.25 -3.765625 C 3.351562 -3.929688 3.40625 -4.132812 3.40625 -4.375 C 3.40625 -4.625 3.351562 -4.828125 3.25 -4.984375 C 3.15625 -5.148438 3.023438 -5.28125 2.859375 -5.375 C 2.691406 -5.46875 2.515625 -5.535156 2.328125 -5.578125 C 2.148438 -5.617188 1.972656 -5.640625 1.796875 -5.640625 C 1.671875 -5.640625 1.539062 -5.632812 1.40625 -5.625 C 1.269531 -5.613281 1.128906 -5.601562 0.984375 -5.59375 Z M 0.984375 -5.59375 "/></g></g></g><g fill="#231f20" fill-opacity="1"><g transform="translate(167.766929, 227.862974)"><g><path d="M 0.34375 -2.078125 C 0.238281 -2.453125 0.210938 -2.828125 0.265625 -3.203125 C 0.328125 -3.578125 0.445312 -3.921875 0.625 -4.234375 C 0.8125 -4.554688 1.050781 -4.832031 1.34375 -5.0625 C 1.632812 -5.289062 1.972656 -5.457031 2.359375 -5.5625 C 2.722656 -5.664062 3.082031 -5.691406 3.4375 -5.640625 C 3.789062 -5.585938 4.125 -5.476562 4.4375 -5.3125 C 4.75 -5.144531 5.019531 -4.925781 5.25 -4.65625 L 5.0625 -3.953125 L 4.984375 -3.953125 C 4.867188 -4.203125 4.71875 -4.429688 4.53125 -4.640625 C 4.351562 -4.859375 4.148438 -5.046875 3.921875 -5.203125 C 3.703125 -5.359375 3.457031 -5.460938 3.1875 -5.515625 C 2.925781 -5.578125 2.65625 -5.570312 2.375 -5.5 C 2.03125 -5.40625 1.742188 -5.238281 1.515625 -5 C 1.285156 -4.757812 1.113281 -4.484375 1 -4.171875 C 0.882812 -3.859375 0.820312 -3.535156 0.8125 -3.203125 L 0.96875 -3.203125 C 1.289062 -3.203125 1.609375 -3.210938 1.921875 -3.234375 C 2.242188 -3.265625 2.53125 -3.300781 2.78125 -3.34375 C 3.039062 -3.394531 3.25 -3.429688 3.40625 -3.453125 C 3.5625 -3.484375 3.640625 -3.5 3.640625 -3.5 L 3.71875 -3.5 L 3.71875 -2.828125 L 3.640625 -2.828125 C 3.640625 -2.828125 3.5625 -2.835938 3.40625 -2.859375 C 3.25 -2.890625 3.039062 -2.925781 2.78125 -2.96875 C 2.53125 -3.019531 2.242188 -3.054688 1.921875 -3.078125 C 1.609375 -3.109375 1.289062 -3.125 0.96875 -3.125 L 0.796875 -3.125 C 0.796875 -2.976562 0.804688 -2.828125 0.828125 -2.671875 C 0.847656 -2.523438 0.875 -2.378906 0.90625 -2.234375 C 1.03125 -1.785156 1.21875 -1.410156 1.46875 -1.109375 C 1.71875 -0.804688 2.003906 -0.578125 2.328125 -0.421875 C 2.648438 -0.273438 2.984375 -0.191406 3.328125 -0.171875 C 3.671875 -0.160156 3.992188 -0.21875 4.296875 -0.34375 C 4.609375 -0.476562 4.875 -0.675781 5.09375 -0.9375 C 5.320312 -1.207031 5.472656 -1.535156 5.546875 -1.921875 L 5.625 -1.90625 C 5.550781 -1.539062 5.410156 -1.222656 5.203125 -0.953125 C 5.003906 -0.691406 4.765625 -0.484375 4.484375 -0.328125 C 4.203125 -0.171875 3.894531 -0.0664062 3.5625 -0.015625 C 3.238281 0.0351562 2.910156 0.03125 2.578125 -0.03125 C 2.242188 -0.09375 1.925781 -0.207031 1.625 -0.375 C 1.320312 -0.539062 1.054688 -0.765625 0.828125 -1.046875 C 0.609375 -1.335938 0.445312 -1.679688 0.34375 -2.078125 Z M 0.34375 -2.078125 "/></g></g></g><g fill="#231f20" fill-opacity="1"><g transform="translate(178.639158, 227.862974)"><g><path d="M 2.546875 0.0625 C 2.179688 0.0625 1.84375 -0.00390625 1.53125 -0.140625 C 1.226562 -0.273438 0.960938 -0.441406 0.734375 -0.640625 C 0.515625 -0.835938 0.347656 -1.023438 0.234375 -1.203125 L 0.4375 -1.921875 L 0.5 -1.921875 C 0.5 -1.921875 0.53125 -1.851562 0.59375 -1.71875 C 0.65625 -1.59375 0.742188 -1.429688 0.859375 -1.234375 C 0.984375 -1.046875 1.128906 -0.859375 1.296875 -0.671875 C 1.460938 -0.484375 1.648438 -0.320312 1.859375 -0.1875 C 2.066406 -0.0625 2.296875 0 2.546875 0 C 2.640625 0 2.753906 -0.015625 2.890625 -0.046875 C 3.023438 -0.078125 3.164062 -0.128906 3.3125 -0.203125 C 3.457031 -0.285156 3.578125 -0.390625 3.671875 -0.515625 C 3.765625 -0.648438 3.8125 -0.816406 3.8125 -1.015625 C 3.8125 -1.273438 3.734375 -1.5 3.578125 -1.6875 C 3.421875 -1.882812 3.222656 -2.054688 2.984375 -2.203125 C 2.742188 -2.347656 2.503906 -2.460938 2.265625 -2.546875 C 1.984375 -2.648438 1.722656 -2.773438 1.484375 -2.921875 C 1.242188 -3.066406 1.046875 -3.25 0.890625 -3.46875 C 0.734375 -3.6875 0.65625 -3.941406 0.65625 -4.234375 C 0.65625 -4.535156 0.726562 -4.789062 0.875 -5 C 1.03125 -5.21875 1.226562 -5.382812 1.46875 -5.5 C 1.71875 -5.625 1.984375 -5.6875 2.265625 -5.6875 C 2.628906 -5.6875 2.929688 -5.640625 3.171875 -5.546875 C 3.410156 -5.453125 3.601562 -5.320312 3.75 -5.15625 C 3.90625 -5 4.035156 -4.828125 4.140625 -4.640625 L 3.953125 -3.9375 L 3.875 -3.9375 C 3.875 -3.9375 3.859375 -3.992188 3.828125 -4.109375 C 3.796875 -4.222656 3.738281 -4.363281 3.65625 -4.53125 C 3.582031 -4.695312 3.484375 -4.863281 3.359375 -5.03125 C 3.234375 -5.195312 3.082031 -5.332031 2.90625 -5.4375 C 2.726562 -5.550781 2.515625 -5.609375 2.265625 -5.609375 C 2.179688 -5.609375 2.066406 -5.59375 1.921875 -5.5625 C 1.785156 -5.53125 1.644531 -5.472656 1.5 -5.390625 C 1.351562 -5.316406 1.226562 -5.210938 1.125 -5.078125 C 1.03125 -4.953125 0.984375 -4.796875 0.984375 -4.609375 C 0.984375 -4.347656 1.0625 -4.117188 1.21875 -3.921875 C 1.382812 -3.722656 1.585938 -3.550781 1.828125 -3.40625 C 2.066406 -3.269531 2.304688 -3.160156 2.546875 -3.078125 C 2.828125 -2.972656 3.085938 -2.847656 3.328125 -2.703125 C 3.578125 -2.554688 3.773438 -2.375 3.921875 -2.15625 C 4.078125 -1.945312 4.15625 -1.691406 4.15625 -1.390625 C 4.15625 -1.085938 4.078125 -0.828125 3.921875 -0.609375 C 3.773438 -0.398438 3.578125 -0.234375 3.328125 -0.109375 C 3.085938 0.00390625 2.828125 0.0625 2.546875 0.0625 Z M 2.546875 0.0625 "/></g></g></g><g fill="#231f20" fill-opacity="1"><g transform="translate(188.039345, 227.862974)"><g><path d="M 2.546875 0.0625 C 2.179688 0.0625 1.84375 -0.00390625 1.53125 -0.140625 C 1.226562 -0.273438 0.960938 -0.441406 0.734375 -0.640625 C 0.515625 -0.835938 0.347656 -1.023438 0.234375 -1.203125 L 0.4375 -1.921875 L 0.5 -1.921875 C 0.5 -1.921875 0.53125 -1.851562 0.59375 -1.71875 C 0.65625 -1.59375 0.742188 -1.429688 0.859375 -1.234375 C 0.984375 -1.046875 1.128906 -0.859375 1.296875 -0.671875 C 1.460938 -0.484375 1.648438 -0.320312 1.859375 -0.1875 C 2.066406 -0.0625 2.296875 0 2.546875 0 C 2.640625 0 2.753906 -0.015625 2.890625 -0.046875 C 3.023438 -0.078125 3.164062 -0.128906 3.3125 -0.203125 C 3.457031 -0.285156 3.578125 -0.390625 3.671875 -0.515625 C 3.765625 -0.648438 3.8125 -0.816406 3.8125 -1.015625 C 3.8125 -1.273438 3.734375 -1.5 3.578125 -1.6875 C 3.421875 -1.882812 3.222656 -2.054688 2.984375 -2.203125 C 2.742188 -2.347656 2.503906 -2.460938 2.265625 -2.546875 C 1.984375 -2.648438 1.722656 -2.773438 1.484375 -2.921875 C 1.242188 -3.066406 1.046875 -3.25 0.890625 -3.46875 C 0.734375 -3.6875 0.65625 -3.941406 0.65625 -4.234375 C 0.65625 -4.535156 0.726562 -4.789062 0.875 -5 C 1.03125 -5.21875 1.226562 -5.382812 1.46875 -5.5 C 1.71875 -5.625 1.984375 -5.6875 2.265625 -5.6875 C 2.628906 -5.6875 2.929688 -5.640625 3.171875 -5.546875 C 3.410156 -5.453125 3.601562 -5.320312 3.75 -5.15625 C 3.90625 -5 4.035156 -4.828125 4.140625 -4.640625 L 3.953125 -3.9375 L 3.875 -3.9375 C 3.875 -3.9375 3.859375 -3.992188 3.828125 -4.109375 C 3.796875 -4.222656 3.738281 -4.363281 3.65625 -4.53125 C 3.582031 -4.695312 3.484375 -4.863281 3.359375 -5.03125 C 3.234375 -5.195312 3.082031 -5.332031 2.90625 -5.4375 C 2.726562 -5.550781 2.515625 -5.609375 2.265625 -5.609375 C 2.179688 -5.609375 2.066406 -5.59375 1.921875 -5.5625 C 1.785156 -5.53125 1.644531 -5.472656 1.5 -5.390625 C 1.351562 -5.316406 1.226562 -5.210938 1.125 -5.078125 C 1.03125 -4.953125 0.984375 -4.796875 0.984375 -4.609375 C 0.984375 -4.347656 1.0625 -4.117188 1.21875 -3.921875 C 1.382812 -3.722656 1.585938 -3.550781 1.828125 -3.40625 C 2.066406 -3.269531 2.304688 -3.160156 2.546875 -3.078125 C 2.828125 -2.972656 3.085938 -2.847656 3.328125 -2.703125 C 3.578125 -2.554688 3.773438 -2.375 3.921875 -2.15625 C 4.078125 -1.945312 4.15625 -1.691406 4.15625 -1.390625 C 4.15625 -1.085938 4.078125 -0.828125 3.921875 -0.609375 C 3.773438 -0.398438 3.578125 -0.234375 3.328125 -0.109375 C 3.085938 0.00390625 2.828125 0.0625 2.546875 0.0625 Z M 2.546875 0.0625 "/></g></g></g><g fill="#231f20" fill-opacity="1"><g transform="translate(197.439532, 227.862974)"><g/></g></g><g fill="#231f20" fill-opacity="1"><g transform="translate(204.231664, 227.862974)"><g><path d="M 0.34375 -2.09375 C 0.238281 -2.46875 0.210938 -2.835938 0.265625 -3.203125 C 0.328125 -3.578125 0.445312 -3.921875 0.625 -4.234375 C 0.8125 -4.554688 1.050781 -4.832031 1.34375 -5.0625 C 1.632812 -5.300781 1.972656 -5.46875 2.359375 -5.5625 C 2.722656 -5.664062 3.082031 -5.691406 3.4375 -5.640625 C 3.789062 -5.597656 4.125 -5.492188 4.4375 -5.328125 C 4.75 -5.160156 5.019531 -4.9375 5.25 -4.65625 L 5.0625 -3.953125 L 4.984375 -3.953125 C 4.867188 -4.210938 4.71875 -4.445312 4.53125 -4.65625 C 4.351562 -4.875 4.148438 -5.0625 3.921875 -5.21875 C 3.691406 -5.375 3.445312 -5.476562 3.1875 -5.53125 C 2.925781 -5.582031 2.65625 -5.570312 2.375 -5.5 C 2.03125 -5.414062 1.742188 -5.253906 1.515625 -5.015625 C 1.285156 -4.785156 1.113281 -4.515625 1 -4.203125 C 0.882812 -3.890625 0.816406 -3.5625 0.796875 -3.21875 C 0.785156 -2.882812 0.820312 -2.554688 0.90625 -2.234375 C 1.03125 -1.785156 1.21875 -1.410156 1.46875 -1.109375 C 1.71875 -0.816406 2.003906 -0.59375 2.328125 -0.4375 C 2.648438 -0.28125 2.984375 -0.195312 3.328125 -0.1875 C 3.671875 -0.175781 3.992188 -0.234375 4.296875 -0.359375 C 4.609375 -0.484375 4.875 -0.675781 5.09375 -0.9375 C 5.320312 -1.207031 5.472656 -1.539062 5.546875 -1.9375 L 5.609375 -1.921875 C 5.535156 -1.546875 5.398438 -1.222656 5.203125 -0.953125 C 5.003906 -0.691406 4.765625 -0.484375 4.484375 -0.328125 C 4.203125 -0.171875 3.894531 -0.0664062 3.5625 -0.015625 C 3.238281 0.0351562 2.910156 0.03125 2.578125 -0.03125 C 2.242188 -0.09375 1.925781 -0.207031 1.625 -0.375 C 1.320312 -0.550781 1.054688 -0.78125 0.828125 -1.0625 C 0.609375 -1.34375 0.445312 -1.6875 0.34375 -2.09375 Z M 0.34375 -2.09375 "/></g></g></g><g fill="#231f20" fill-opacity="1"><g transform="translate(215.095886, 227.862974)"><g><path d="M 0.34375 -2.078125 C 0.238281 -2.453125 0.210938 -2.828125 0.265625 -3.203125 C 0.316406 -3.578125 0.429688 -3.921875 0.609375 -4.234375 C 0.796875 -4.554688 1.035156 -4.832031 1.328125 -5.0625 C 1.628906 -5.289062 1.96875 -5.457031 2.34375 -5.5625 C 2.71875 -5.664062 3.09375 -5.6875 3.46875 -5.625 C 3.84375 -5.570312 4.1875 -5.453125 4.5 -5.265625 C 4.820312 -5.085938 5.097656 -4.851562 5.328125 -4.5625 C 5.554688 -4.269531 5.722656 -3.929688 5.828125 -3.546875 C 5.921875 -3.171875 5.941406 -2.796875 5.890625 -2.421875 C 5.835938 -2.054688 5.71875 -1.710938 5.53125 -1.390625 C 5.351562 -1.078125 5.117188 -0.800781 4.828125 -0.5625 C 4.535156 -0.332031 4.195312 -0.171875 3.8125 -0.078125 C 3.4375 0.0234375 3.0625 0.0507812 2.6875 0 C 2.320312 -0.0507812 1.976562 -0.164062 1.65625 -0.34375 C 1.34375 -0.53125 1.066406 -0.769531 0.828125 -1.0625 C 0.597656 -1.363281 0.4375 -1.703125 0.34375 -2.078125 Z M 5.25 -3.40625 C 5.175781 -3.71875 5.046875 -4.015625 4.859375 -4.296875 C 4.679688 -4.585938 4.460938 -4.835938 4.203125 -5.046875 C 3.941406 -5.265625 3.65625 -5.414062 3.34375 -5.5 C 3.039062 -5.582031 2.71875 -5.582031 2.375 -5.5 C 2.019531 -5.40625 1.726562 -5.238281 1.5 -5 C 1.28125 -4.769531 1.109375 -4.5 0.984375 -4.1875 C 0.867188 -3.882812 0.804688 -3.5625 0.796875 -3.21875 C 0.785156 -2.875 0.820312 -2.546875 0.90625 -2.234375 C 0.988281 -1.921875 1.117188 -1.617188 1.296875 -1.328125 C 1.484375 -1.046875 1.703125 -0.796875 1.953125 -0.578125 C 2.210938 -0.367188 2.5 -0.21875 2.8125 -0.125 C 3.125 -0.0390625 3.453125 -0.046875 3.796875 -0.140625 C 4.140625 -0.234375 4.421875 -0.394531 4.640625 -0.625 C 4.867188 -0.851562 5.039062 -1.125 5.15625 -1.4375 C 5.28125 -1.75 5.347656 -2.078125 5.359375 -2.421875 C 5.378906 -2.765625 5.34375 -3.09375 5.25 -3.40625 Z M 5.25 -3.40625 "/></g></g></g><g fill="#231f20" fill-opacity="1"><g transform="translate(226.272114, 227.862974)"><g><path d="M 0.234375 -5.546875 L 0.234375 -5.609375 L 0.984375 -5.609375 L 0.984375 -4.765625 C 1.078125 -5.035156 1.238281 -5.242188 1.46875 -5.390625 C 1.707031 -5.546875 1.984375 -5.640625 2.296875 -5.671875 C 2.609375 -5.710938 2.925781 -5.679688 3.25 -5.578125 C 3.570312 -5.484375 3.867188 -5.316406 4.140625 -5.078125 C 4.421875 -4.847656 4.648438 -4.539062 4.828125 -4.15625 C 5.003906 -3.78125 5.09375 -3.332031 5.09375 -2.8125 C 5.09375 -2.289062 5.003906 -1.84375 4.828125 -1.46875 C 4.660156 -1.101562 4.425781 -0.804688 4.125 -0.578125 C 3.832031 -0.347656 3.484375 -0.175781 3.078125 -0.0625 C 2.671875 0.0390625 2.234375 0.09375 1.765625 0.09375 C 1.535156 0.09375 1.289062 0.078125 1.03125 0.046875 C 0.78125 0.0234375 0.539062 0.0078125 0.3125 0 L 0.234375 0 L 0.234375 -0.078125 C 0.265625 -0.078125 0.300781 -0.113281 0.34375 -0.1875 C 0.394531 -0.257812 0.421875 -0.425781 0.421875 -0.6875 L 0.421875 -4.921875 C 0.421875 -5.191406 0.394531 -5.363281 0.34375 -5.4375 C 0.300781 -5.507812 0.265625 -5.546875 0.234375 -5.546875 Z M 4.53125 -2.8125 C 4.53125 -3.28125 4.460938 -3.6875 4.328125 -4.03125 C 4.203125 -4.375 4.035156 -4.65625 3.828125 -4.875 C 3.617188 -5.101562 3.390625 -5.269531 3.140625 -5.375 C 2.890625 -5.488281 2.640625 -5.546875 2.390625 -5.546875 C 2.140625 -5.554688 1.90625 -5.515625 1.6875 -5.421875 C 1.476562 -5.328125 1.304688 -5.1875 1.171875 -5 C 1.046875 -4.820312 0.984375 -4.59375 0.984375 -4.3125 L 0.984375 -0.03125 C 1.117188 -0.0195312 1.25 -0.0078125 1.375 0 C 1.507812 0.0078125 1.640625 0.015625 1.765625 0.015625 C 2.335938 0.015625 2.832031 -0.09375 3.25 -0.3125 C 3.664062 -0.539062 3.984375 -0.867188 4.203125 -1.296875 C 4.421875 -1.722656 4.53125 -2.226562 4.53125 -2.8125 Z M 4.53125 -2.8125 "/></g></g></g><g fill="#231f20" fill-opacity="1"><g transform="translate(236.608317, 227.862974)"><g><path d="M 0.34375 -2.078125 C 0.238281 -2.453125 0.210938 -2.828125 0.265625 -3.203125 C 0.328125 -3.578125 0.445312 -3.921875 0.625 -4.234375 C 0.8125 -4.554688 1.050781 -4.832031 1.34375 -5.0625 C 1.632812 -5.289062 1.972656 -5.457031 2.359375 -5.5625 C 2.722656 -5.664062 3.082031 -5.691406 3.4375 -5.640625 C 3.789062 -5.585938 4.125 -5.476562 4.4375 -5.3125 C 4.75 -5.144531 5.019531 -4.925781 5.25 -4.65625 L 5.0625 -3.953125 L 4.984375 -3.953125 C 4.867188 -4.203125 4.71875 -4.429688 4.53125 -4.640625 C 4.351562 -4.859375 4.148438 -5.046875 3.921875 -5.203125 C 3.703125 -5.359375 3.457031 -5.460938 3.1875 -5.515625 C 2.925781 -5.578125 2.65625 -5.570312 2.375 -5.5 C 2.03125 -5.40625 1.742188 -5.238281 1.515625 -5 C 1.285156 -4.757812 1.113281 -4.484375 1 -4.171875 C 0.882812 -3.859375 0.820312 -3.535156 0.8125 -3.203125 L 0.96875 -3.203125 C 1.289062 -3.203125 1.609375 -3.210938 1.921875 -3.234375 C 2.242188 -3.265625 2.53125 -3.300781 2.78125 -3.34375 C 3.039062 -3.394531 3.25 -3.429688 3.40625 -3.453125 C 3.5625 -3.484375 3.640625 -3.5 3.640625 -3.5 L 3.71875 -3.5 L 3.71875 -2.828125 L 3.640625 -2.828125 C 3.640625 -2.828125 3.5625 -2.835938 3.40625 -2.859375 C 3.25 -2.890625 3.039062 -2.925781 2.78125 -2.96875 C 2.53125 -3.019531 2.242188 -3.054688 1.921875 -3.078125 C 1.609375 -3.109375 1.289062 -3.125 0.96875 -3.125 L 0.796875 -3.125 C 0.796875 -2.976562 0.804688 -2.828125 0.828125 -2.671875 C 0.847656 -2.523438 0.875 -2.378906 0.90625 -2.234375 C 1.03125 -1.785156 1.21875 -1.410156 1.46875 -1.109375 C 1.71875 -0.804688 2.003906 -0.578125 2.328125 -0.421875 C 2.648438 -0.273438 2.984375 -0.191406 3.328125 -0.171875 C 3.671875 -0.160156 3.992188 -0.21875 4.296875 -0.34375 C 4.609375 -0.476562 4.875 -0.675781 5.09375 -0.9375 C 5.320312 -1.207031 5.472656 -1.535156 5.546875 -1.921875 L 5.625 -1.90625 C 5.550781 -1.539062 5.410156 -1.222656 5.203125 -0.953125 C 5.003906 -0.691406 4.765625 -0.484375 4.484375 -0.328125 C 4.203125 -0.171875 3.894531 -0.0664062 3.5625 -0.015625 C 3.238281 0.0351562 2.910156 0.03125 2.578125 -0.03125 C 2.242188 -0.09375 1.925781 -0.207031 1.625 -0.375 C 1.320312 -0.539062 1.054688 -0.765625 0.828125 -1.046875 C 0.609375 -1.335938 0.445312 -1.679688 0.34375 -2.078125 Z M 0.34375 -2.078125 "/></g></g></g><g clip-path="url(#ab56e18667)"><path fill="#231f20" d="M 287.550781 156.355469 L 287.46875 156.269531 L 275.175781 143.980469 L 287.550781 131.605469 L 287.636719 131.6875 L 299.925781 143.980469 Z M 275.511719 143.980469 L 287.550781 156.019531 L 299.589844 143.980469 L 287.550781 131.941406 Z M 275.511719 143.980469 " fill-opacity="1" fill-rule="nonzero"/></g><g clip-path="url(#5326050541)"><path fill="#231f20" d="M 299.78125 156.355469 L 287.40625 143.980469 L 287.488281 143.894531 L 299.78125 131.605469 L 312.15625 143.980469 L 312.070312 144.0625 Z M 287.742188 143.980469 L 299.78125 156.019531 L 311.820312 143.980469 L 299.78125 131.941406 Z M 287.742188 143.980469 " fill-opacity="1" fill-rule="nonzero"/></g><g clip-path="url(#2ff6238bda)"><path fill="#231f20" d="M 312.007812 156.355469 L 299.632812 143.980469 L 299.714844 143.894531 L 312.007812 131.605469 L 324.382812 143.980469 L 324.296875 144.0625 Z M 299.96875 143.980469 L 312.007812 156.019531 L 324.046875 143.980469 L 312.007812 131.941406 Z M 299.96875 143.980469 " fill-opacity="1" fill-rule="nonzero"/></g></svg>