<svg xmlns="http://www.w3.org/2000/svg" xmlns:xlink="http://www.w3.org/1999/xlink" width="500" zoomAndPan="magnify" viewBox="0 0 375 374.999991" height="500" preserveAspectRatio="xMidYMid meet" version="1.0"><defs><g/><clipPath id="3df3274ca0"><path d="M 66.785156 333.328125 L 87.785156 333.328125 L 87.785156 354.328125 L 66.785156 354.328125 Z M 66.785156 333.328125 " clip-rule="nonzero"/></clipPath><clipPath id="d4238f3322"><path d="M 77.292969 333.328125 L 98.292969 333.328125 L 98.292969 354.328125 L 77.292969 354.328125 Z M 77.292969 333.328125 " clip-rule="nonzero"/></clipPath><clipPath id="a1490e1110"><path d="M 87.804688 333.328125 L 108.804688 333.328125 L 108.804688 354.328125 L 87.804688 354.328125 Z M 87.804688 333.328125 " clip-rule="nonzero"/></clipPath><clipPath id="b0ba738f42"><path d="M 175.128906 263.503906 L 199.878906 263.503906 L 199.878906 288.253906 L 175.128906 288.253906 Z M 175.128906 263.503906 " clip-rule="nonzero"/></clipPath><clipPath id="15efae8441"><path d="M 175.128906 251.277344 L 199.878906 251.277344 L 199.878906 276.027344 L 175.128906 276.027344 Z M 175.128906 251.277344 " clip-rule="nonzero"/></clipPath><clipPath id="d3477df88a"><path d="M 175.128906 239.050781 L 199.878906 239.050781 L 199.878906 263.800781 L 175.128906 263.800781 Z M 175.128906 239.050781 " clip-rule="nonzero"/></clipPath></defs><g clip-path="url(#3df3274ca0)"><path fill="#ffffff" d="M 77.277344 333.316406 L 77.351562 333.386719 L 87.785156 343.820312 L 87.710938 343.890625 L 77.277344 354.328125 L 77.207031 354.253906 L 66.773438 343.820312 Z M 87.5 343.820312 L 77.277344 333.601562 L 67.058594 343.820312 L 77.277344 354.042969 Z M 87.5 343.820312 " fill-opacity="1" fill-rule="nonzero"/></g><g clip-path="url(#d4238f3322)"><path fill="#ffffff" d="M 87.789062 333.316406 L 98.292969 343.820312 L 98.222656 343.890625 L 87.789062 354.328125 L 77.28125 343.820312 L 77.355469 343.75 Z M 98.007812 343.820312 L 87.789062 333.601562 L 77.566406 343.820312 L 87.789062 354.042969 Z M 98.007812 343.820312 " fill-opacity="1" fill-rule="nonzero"/></g><g clip-path="url(#a1490e1110)"><path fill="#ffffff" d="M 98.296875 333.316406 L 98.367188 333.386719 L 108.804688 343.820312 L 108.730469 343.890625 L 98.296875 354.328125 L 98.226562 354.253906 L 87.792969 343.820312 Z M 108.519531 343.820312 L 98.296875 333.601562 L 88.078125 343.820312 L 98.296875 354.042969 Z M 108.519531 343.820312 " fill-opacity="1" fill-rule="nonzero"/></g><g fill="#000000" fill-opacity="1"><g transform="translate(146.384652, 292.654506)"><g><path d="M 34.421875 0 L 4.609375 0 L 4.609375 -1.390625 C 5.117188 -1.390625 5.832031 -2.101562 6.75 -3.53125 C 7.675781 -4.96875 8.140625 -8.195312 8.140625 -13.21875 L 8.140625 -94.671875 C 8.140625 -99.796875 7.675781 -103.046875 6.75 -104.421875 C 5.832031 -105.804688 5.117188 -106.5 4.609375 -106.5 L 4.609375 -107.890625 L 6 -107.890625 C 10.5 -107.992188 15.257812 -108.300781 20.28125 -108.8125 C 25.300781 -109.320312 30.015625 -109.578125 34.421875 -109.578125 C 44.878906 -109.578125 53.15625 -108.472656 59.25 -106.265625 C 65.34375 -104.066406 69.695312 -101.070312 72.3125 -97.28125 C 74.925781 -93.488281 76.234375 -89.082031 76.234375 -84.0625 C 76.234375 -77.8125 74.054688 -72.457031 69.703125 -68 C 65.347656 -63.550781 57.738281 -60.660156 46.875 -59.328125 C 54.144531 -58.503906 60.703125 -56.890625 66.546875 -54.484375 C 72.390625 -52.078125 77 -48.847656 80.375 -44.796875 C 83.757812 -40.753906 85.453125 -35.757812 85.453125 -29.8125 C 85.453125 -23.875 84.09375 -18.957031 81.375 -15.0625 C 78.664062 -11.164062 74.953125 -8.113281 70.234375 -5.90625 C 65.523438 -3.707031 60.09375 -2.171875 53.9375 -1.296875 C 47.789062 -0.429688 41.285156 0 34.421875 0 Z M 74.53125 -29.8125 C 74.53125 -35.34375 73.351562 -39.898438 71 -43.484375 C 68.644531 -47.078125 65.671875 -49.894531 62.078125 -51.9375 C 58.492188 -53.988281 54.804688 -55.472656 51.015625 -56.390625 C 47.234375 -57.316406 43.878906 -57.929688 40.953125 -58.234375 C 38.035156 -58.546875 36.066406 -58.703125 35.046875 -58.703125 L 19.0625 -58.703125 L 19.0625 -1.390625 L 34.421875 -1.390625 C 34.421875 -1.390625 35.394531 -1.410156 37.34375 -1.453125 C 39.289062 -1.503906 41.773438 -1.734375 44.796875 -2.140625 C 47.816406 -2.554688 51.039062 -3.300781 54.46875 -4.375 C 57.90625 -5.457031 61.132812 -7.046875 64.15625 -9.140625 C 67.1875 -11.242188 69.671875 -13.984375 71.609375 -17.359375 C 73.554688 -20.742188 74.53125 -24.894531 74.53125 -29.8125 Z M 19.0625 -60.09375 L 34.421875 -60.09375 L 34.421875 -59.9375 C 37.804688 -59.9375 41.289062 -60.320312 44.875 -61.09375 C 48.457031 -61.863281 51.8125 -63.144531 54.9375 -64.9375 C 58.0625 -66.726562 60.597656 -69.1875 62.546875 -72.3125 C 64.492188 -75.4375 65.46875 -79.351562 65.46875 -84.0625 C 65.46875 -88.882812 64.492188 -92.859375 62.546875 -95.984375 C 60.597656 -99.109375 58.0625 -101.566406 54.9375 -103.359375 C 51.8125 -105.148438 48.457031 -106.425781 44.875 -107.1875 C 41.289062 -107.957031 37.804688 -108.34375 34.421875 -108.34375 C 32.066406 -108.34375 29.582031 -108.238281 26.96875 -108.03125 C 24.351562 -107.832031 21.71875 -107.628906 19.0625 -107.421875 Z M 19.0625 -60.09375 "/></g></g></g><g clip-path="url(#b0ba738f42)"><path fill="#231f20" d="M 199.878906 275.882812 L 199.796875 275.964844 L 187.503906 288.253906 L 187.421875 288.171875 L 175.128906 275.882812 L 187.503906 263.507812 L 187.589844 263.589844 Z M 187.503906 287.921875 L 199.542969 275.882812 L 187.503906 263.84375 L 175.464844 275.882812 Z M 187.503906 287.921875 " fill-opacity="1" fill-rule="nonzero"/></g><g clip-path="url(#15efae8441)"><path fill="#231f20" d="M 199.878906 263.652344 L 199.796875 263.738281 L 187.503906 276.027344 L 175.128906 263.652344 L 175.214844 263.570312 L 187.503906 251.277344 Z M 187.503906 275.691406 L 199.542969 263.652344 L 187.503906 251.613281 L 175.464844 263.652344 Z M 187.503906 275.691406 " fill-opacity="1" fill-rule="nonzero"/></g><g clip-path="url(#d3477df88a)"><path fill="#000000" d="M 199.574219 251.578125 L 187.351562 263.800781 L 175.128906 251.578125 L 175.214844 251.496094 L 187.351562 239.355469 Z M 187.351562 263.46875 L 199.242188 251.578125 L 187.351562 239.6875 L 175.460938 251.578125 Z M 187.351562 263.46875 " fill-opacity="1" fill-rule="nonzero"/></g></svg>